# 3ds Max Wavefront OBJ Exporter v0.97b - (c)2007 guruware
# File Created: 12.07.2016 12:35:13

mtllib Egg.mtl

#
# object Egg
#

v  -5.2967 7.4000 1.5375
v  -5.0075 5.1000 3.2943
v  -3.2464 7.4000 4.0347
v  -5.6822 5.1000 -0.0441
v  -5.2967 2.8000 1.5375
v  -3.2420 2.8000 -4.0658
v  -2.4578 0.8000 -2.3791
v  -5.3098 2.8000 -1.5511
v  2.4665 0.8000 -2.4098
v  -0.0000 -0.0000 -0.0002
v  -5.3098 7.4000 -1.5511
v  4.1882 2.8000 -4.0877
v  0.0175 2.8000 -5.0121
v  -2.5673 5.1000 -5.2925
v  -5.0645 5.1000 -3.2422
v  -3.0361 0.8000 0.9548
v  -2.4928 5.1000 5.3621
v  -0.0176 2.8000 5.0116
v  2.5673 5.1000 5.2920
v  -0.0176 7.4000 5.0116
v  -3.2464 2.8000 4.0347
v  -0.0263 0.8000 2.9526
v  4.2715 7.4000 4.0610
v  4.0831 0.8000 0.8760
v  4.2715 2.8000 4.0610
v  6.7862 2.8000 1.5638
v  6.4050 5.1000 3.2943
v  6.7862 7.4000 1.5638
v  6.7730 7.4000 -1.5248
v  6.3963 5.1000 -3.3298
v  4.1882 7.4000 -4.0877
v  8.0129 5.1000 -0.0440
v  2.4928 5.1000 -5.3626
v  0.0175 7.4000 -5.0121
v  6.7730 2.8000 -1.5248
v  -3.2420 7.4000 -4.0658
v  -2.4666 9.4000 2.4093
v  -0.0000 10.2000 -0.0002
v  -3.0536 9.4000 -0.8808
v  2.4577 9.4000 2.3787
v  0.0263 9.4000 -2.9531
v  4.0174 9.4000 -0.8721
# 42 vertices

vn -0.8505 0.4618 0.2518
vn -0.8282 0.0000 0.5605
vn -0.4874 0.4989 0.7167
vn -1.0000 0.0000 0.0029
vn -0.8442 -0.4676 0.2621
vn -0.4805 -0.4991 -0.7211
vn -0.3266 -0.8589 -0.3944
vn -0.8488 -0.4666 -0.2486
vn 0.2204 -0.8822 -0.4161
vn -0.0186 -0.9998 0.0029
vn -0.8426 0.4718 -0.2596
vn 0.4122 -0.5188 -0.7489
vn -0.0177 -0.5064 -0.8621
vn -0.3548 0.0000 -0.9349
vn -0.8322 0.0000 -0.5545
vn -0.4414 -0.8775 0.1878
vn -0.3458 0.0000 0.9383
vn -0.0181 -0.4891 0.8721
vn 0.2394 -0.0000 0.9709
vn -0.0128 0.5066 0.8621
vn -0.4775 -0.5476 0.6871
vn -0.0330 -0.8643 0.5019
vn 0.4147 0.5149 0.7503
vn 0.3789 -0.9125 0.1542
vn 0.4059 -0.5284 0.7457
vn 0.7548 -0.5698 0.3250
vn 0.7226 0.0000 0.6913
vn 0.7435 0.5856 0.3230
vn 0.7482 0.5798 -0.3226
vn 0.7203 -0.0000 -0.6937
vn 0.4033 0.5364 -0.7414
vn 1.0000 0.0000 -0.0085
vn 0.2312 -0.0000 -0.9729
vn -0.0212 0.4884 -0.8724
vn 0.7401 -0.5901 -0.3225
vn -0.4725 0.5459 -0.6919
vn -0.3279 0.8559 0.4000
vn -0.0178 0.9998 -0.0040
vn -0.4422 0.8787 -0.1799
vn 0.2199 0.8842 0.4121
vn -0.0289 0.8655 -0.5001
vn 0.3768 0.9130 -0.1561
# 42 vertex normals

vt 0.2480 0.1895 0.0000
vt 0.4658 0.4893 0.0000
vt 0.6992 0.1533 0.0000
vt 0.0723 0.5234 0.0000
vt 0.2578 0.8252 0.0000
vt 0.4668 0.4834 0.0000
vt 0.6660 1.0361 0.0000
vt 1.1230 0.2920 0.0000
vt 0.4658 0.4766 0.0000
vt 0.6729 0.7939 0.0000
vt 0.9219 0.5693 0.0000
vt 0.4912 -0.0361 0.0000
vt 0.8076 0.4893 0.0000
vt 1.1338 -0.0166 0.0000
vt 0.2891 0.1631 0.0000
vt 0.6914 0.1523 0.0000
vt 0.0684 0.0742 0.0000
vt 0.7305 -0.1777 0.0000
vt -0.1699 0.8467 0.0000
vt -0.1172 0.3652 0.0000
vt 0.4717 0.5186 0.0000
vt 0.2061 -0.0010 0.0000
vt 0.1865 0.9678 0.0000
vt 0.7422 1.0303 0.0000
vt 0.0723 0.4355 0.0000
vt 0.4473 0.8789 0.0000
vt 0.9531 0.5225 0.0000
vt -0.0547 0.0166 0.0000
vt 0.5537 0.0762 0.0000
vt 0.7061 -0.0635 0.0000
vt 1.0244 0.6113 0.0000
vt -0.2783 0.4834 0.0000
vt 0.1523 0.9570 0.0000
vt 0.5020 0.4785 0.0000
vt 0.9609 0.8604 0.0000
vt 0.4365 1.0732 0.0000
vt 0.7441 1.2148 0.0000
vt 0.2441 1.1064 0.0000
vt 0.8486 0.7148 0.0000
vt 0.4824 0.2998 0.0000
vt 0.9873 0.0947 0.0000
vt 0.1885 0.9150 0.0000
vt -0.0313 1.3584 0.0000
vt -0.0391 0.7617 0.0000
vt 0.9775 0.8369 0.0000
vt 1.1240 0.2783 0.0000
vt 0.6777 0.6836 0.0000
vt 0.5371 0.8750 0.0000
vt 0.7275 1.0713 0.0000
vt 0.4033 0.0488 0.0000
vt 0.5313 0.4297 0.0000
vt 0.7646 0.2041 0.0000
vt 0.0439 0.2725 0.0000
vt 0.1367 0.6680 0.0000
vt 0.1943 0.1143 0.0000
vt 0.4082 0.4785 0.0000
vt 0.7559 0.0674 0.0000
vt -0.1445 0.5410 0.0000
vt 0.1279 0.9102 0.0000
vt 0.2744 0.7598 0.0000
vt 0.0117 0.3516 0.0000
vt 0.0977 0.4580 0.0000
vt 0.3057 0.8086 0.0000
vt 0.4785 0.5254 0.0000
vt 0.7021 0.7803 0.0000
vt 0.4170 0.7559 0.0000
vt 0.3320 1.1006 0.0000
vt 0.7393 0.9287 0.0000
vt 0.8711 0.4521 0.0000
vt 0.1045 0.4707 0.0000
vt 0.4248 0.5322 0.0000
vt 0.5986 0.0615 0.0000
vt 0.1426 0.2061 0.0000
vt 0.4668 0.9980 0.0000
vt 0.4180 0.9111 0.0000
vt -0.0156 0.7686 0.0000
vt 1.0664 0.2217 0.0000
vt 0.8965 0.8135 0.0000
vt 0.7539 1.3760 0.0000
vt 0.8887 1.0596 0.0000
vt 0.5820 0.9971 0.0000
vt -0.3271 1.2021 0.0000
vt 0.3447 1.0537 0.0000
vt -0.0957 0.8740 0.0000
vt 0.7021 0.1104 0.0000
vt 0.2588 0.1191 0.0000
vt 0.1992 1.1104 0.0000
vt 0.5977 1.1045 0.0000
vt 0.4658 0.7617 0.0000
vt 0.6895 0.8633 0.0000
vt 1.0488 0.4424 0.0000
vt 0.8252 0.1934 0.0000
vt 0.4316 0.4541 0.0000
vt 0.6924 0.7705 0.0000
vt 0.2979 -0.0801 0.0000
vt 0.3105 0.8789 0.0000
vt 0.5352 -0.0078 0.0000
vt 0.6904 -0.2236 0.0000
vt 0.0859 0.1670 0.0000
vt 0.3047 1.1719 0.0000
vt 0.5850 1.1094 0.0000
vt 0.2793 0.7432 0.0000
vt 0.8125 0.6025 0.0000
vt 0.3262 1.1650 0.0000
vt 0.2754 0.7773 0.0000
vt 0.4980 0.8232 0.0000
vt 0.9053 0.4541 0.0000
vt -0.1611 0.8184 0.0000
vt 0.7090 0.7881 0.0000
vt 0.1475 0.1455 0.0000
vt -0.0195 0.7197 0.0000
# 111 texture coords

g Egg
usemtl VMtl091
f 1/1/1 2/2/2 3/3/3 
f 4/4/4 5/5/5 2/2/2 
f 6/6/6 7/7/7 8/8/8 
f 4/4/4 2/2/2 1/1/1 
f 9/9/9 10/10/10 7/11/7 
f 11/12/11 4/13/4 1/14/1 
f 12/15/12 9/9/9 13/16/13 
f 9/9/9 7/11/7 13/16/13 
f 14/17/14 6/6/6 15/18/15 
f 13/19/13 7/7/7 6/6/6 
f 8/20/8 16/21/16 5/22/5 
f 7/23/7 10/24/10 16/21/16 
f 17/25/17 18/26/18 19/27/19 
f 7/23/7 16/21/16 8/20/8 
f 3/28/3 17/25/17 20/29/20 
f 17/25/17 19/27/19 20/29/20 
f 5/22/5 16/21/16 21/30/21 
f 16/21/16 22/31/22 21/30/21 
f 16/21/16 10/24/10 22/31/22 
f 20/32/20 19/33/19 23/34/23 
f 21/35/21 22/36/22 18/37/18 
f 22/38/22 24/39/24 25/40/25 
f 25/40/25 24/39/24 26/41/26 
f 22/36/22 10/42/10 24/43/24 
f 18/44/18 22/38/22 25/40/25 
f 23/34/23 27/45/27 28/46/28 
f 29/47/29 30/48/30 31/49/31 
f 28/50/28 32/51/32 29/52/29 
f 27/53/27 26/54/26 32/51/32 
f 31/55/31 33/56/33 34/57/34 
f 27/53/27 32/51/32 28/50/28 
f 30/58/30 33/56/33 31/55/31 
f 30/58/30 12/59/12 33/56/33 
f 24/60/24 10/10/10 9/9/9 
f 24/60/24 9/9/9 35/61/35 
f 35/61/35 9/9/9 12/15/12 
f 34/62/34 14/63/14 36/64/36 
f 14/63/14 15/65/15 36/64/36 
f 26/66/26 24/67/24 35/68/35 
f 36/64/36 15/65/15 11/69/11 
f 4/13/4 11/12/11 15/70/15 
f 8/8/8 15/18/15 6/6/6 
f 37/71/37 38/72/38 39/73/39 
f 4/13/4 15/70/15 8/74/8 
f 3/75/3 37/71/37 1/76/1 
f 37/71/37 39/73/39 1/76/1 
f 40/77/40 38/72/38 37/71/37 
f 40/77/40 37/71/37 20/78/20 
f 5/79/5 4/80/4 8/81/8 
f 20/78/20 37/71/37 3/75/3 
f 1/82/1 39/83/39 11/84/11 
f 11/69/11 39/85/39 36/64/36 
f 39/85/39 41/86/41 36/64/36 
f 39/87/39 38/88/38 41/89/41 
f 36/64/36 41/86/41 34/62/34 
f 13/90/13 33/56/33 12/59/12 
f 14/91/14 34/57/34 33/56/33 
f 6/6/6 14/17/14 13/19/13 
f 14/91/14 33/56/33 13/90/13 
f 41/92/41 42/93/42 31/94/31 
f 23/34/23 40/95/40 20/32/20 
f 31/94/31 42/93/42 29/96/29 
f 41/92/41 38/97/38 42/93/42 
f 27/98/27 19/99/19 25/40/25 
f 26/41/26 27/98/27 25/40/25 
f 34/100/34 41/101/41 31/102/31 
f 25/40/25 19/99/19 18/44/18 
f 30/103/30 29/52/29 32/51/32 
f 12/104/12 30/48/30 35/105/35 
f 30/103/30 32/51/32 35/106/35 
f 35/106/35 32/51/32 26/54/26 
f 17/107/17 3/3/3 2/2/2 
f 18/26/18 17/25/17 21/108/21 
f 17/107/17 2/2/2 21/109/21 
f 21/109/21 2/2/2 5/5/5 
f 42/93/42 40/110/40 28/111/28 
f 42/93/42 38/97/38 40/110/40 
f 28/46/28 40/95/40 23/34/23 
f 29/96/29 42/93/42 28/111/28 
f 27/45/27 23/34/23 19/33/19 
# 80 faces

