# 3ds Max Wavefront OBJ Exporter v0.97b - (c)2007 guruware
# File Created: 11.11.2016 07:54:34

mtllib chomp.mtl

#
# object Nemu_6F225AC4_0_028
#

v  0.3663 1.3625 0.5834
v  0.6137 1.5291 0.1610
v  0.3071 1.6241 0.3355
v  0.6729 1.2683 0.4100
v  -0.6147 1.5291 0.1568
v  -0.3702 1.3625 0.5808
v  -0.3093 1.6241 0.3334
v  -0.6756 1.2683 0.4054
# 8 vertices

vn 0.5187 0.6469 0.5590
vn 0.5153 0.6502 0.5583
vn -0.5226 0.6468 0.5555
vn -0.5191 0.6502 0.5548
# 4 vertex normals

vt 0.0000 0.9668 0.0000
vt 0.9668 0.0000 0.0000
vt 0.0000 0.0000 0.0000
vt 0.9668 0.9668 0.0000
# 4 texture coords

g Nemu_6F225AC4_0_028
usemtl Material__1113
s 1
f 1/1/1 2/2/1 3/3/1 
f 4/4/2 2/2/2 1/1/2 
f 5/2/3 6/1/3 7/3/3 
f 5/2/4 8/4/4 6/1/4 
# 0 polygons - 4 triangles

#
# object Nemu_108312FB_0_025
#

v  -0.6038 1.2379 0.4738
v  -0.6783 1.1345 0.3300
v  -0.6263 1.0353 0.4774
v  -0.7364 1.0468 0.2081
v  -0.7053 0.9899 0.3268
v  -0.0030 1.3817 0.6755
v  -0.3926 1.2897 0.5463
v  -0.2103 1.0050 0.7446
v  -0.4977 1.0173 0.5888
v  0.5991 1.2379 0.4780
v  0.3874 1.2897 0.5490
v  0.4922 1.0173 0.5922
v  0.2037 1.0050 0.7461
v  0.7335 1.0468 0.2131
v  0.6746 1.1345 0.3346
v  0.7016 0.9899 0.3316
v  0.6216 1.0353 0.4816
# 17 vertices

vn -0.9124 0.1083 0.3947
vn -0.9313 0.1667 0.3238
vn -0.3692 0.3604 0.8566
vn -0.3725 0.2816 0.8843
vn 0.3665 0.2815 0.8868
vn 0.3632 0.3604 0.8592
vn 0.9291 0.1668 0.3302
vn 0.9097 0.1083 0.4009
# 8 vertex normals

vt 0.0721 0.3352 0.0000
vt 0.0631 0.3830 0.0000
vt 0.3781 0.1348 0.0000
vt 0.3684 0.1115 0.0000
vt 0.7455 0.1115 0.0000
vt 0.7471 0.1348 0.0000
vt 1.0098 0.3830 0.0000
vt 0.9948 0.3352 0.0000
# 8 texture coords

g Nemu_108312FB_0_025
usemtl Material__1112
s 1
f 9/5/5 10/5/5 11/5/5 
f 10/6/6 12/6/6 13/6/6 
f 14/7/7 15/7/7 16/7/7 
f 15/8/8 9/8/8 17/8/8 
f 18/9/9 19/9/9 20/9/9 
f 19/10/10 14/10/10 21/10/10 
f 22/11/11 23/11/11 24/11/11 
f 23/12/12 18/12/12 25/12/12 
# 0 polygons - 8 triangles

#
# object Nemu_5EAD8A9F_0_024
#

v  -0.6174 1.2411 0.4936
v  0.8723 0.8808 -0.0014
v  -0.0031 1.3911 0.7039
v  -0.8722 0.8808 -0.0074
v  0.6141 1.2411 0.4978
# 5 vertices

vn -0.0020 -0.8113 0.5846
# 1 vertex normals

vt 0.1152 0.8594 0.0000
vt 0.9668 0.3711 0.0000
vt 0.4844 0.9961 0.0000
vt -0.0508 0.4609 0.0000
vt 0.8359 0.7969 0.0000
# 5 texture coords

g Nemu_5EAD8A9F_0_024
usemtl Material__1107
s 1
f 26/13/13 27/14/13 28/15/13 
f 29/16/13 27/14/13 26/13/13 
f 28/15/13 27/14/13 30/17/13 
# 0 polygons - 3 triangles

#
# object Nemu_6B19E23B_0_023
#

v  -0.2324 1.3927 -0.6624
v  0.0022 1.0196 -0.8587
v  -0.4302 1.1248 -0.7141
v  0.0010 1.5830 -0.5103
v  0.0018 1.3365 -0.7395
v  0.0022 0.6811 -0.8460
v  -0.5639 0.8179 -0.6580
v  0.0017 0.3748 -0.7066
v  -0.6110 0.5230 -0.5031
v  0.6130 0.5230 -0.4988
v  0.5670 0.8179 -0.6542
v  0.4337 1.1248 -0.7111
v  0.2356 1.3927 -0.6608
v  -0.3291 1.5294 -0.4729
v  -0.6114 1.3773 -0.3643
v  -0.7995 1.1485 -0.2001
v  -0.8662 0.8808 -0.0074
v  0.8648 0.8808 -0.0014
v  0.7994 1.1485 -0.1946
v  0.6125 1.3773 -0.3601
v  0.3309 1.5294 -0.4706
v  -0.2337 1.6662 -0.2827
v  -0.4327 1.6298 -0.0132
v  -0.5521 1.4642 0.2518
v  -0.6144 1.2385 0.4900
v  0.6096 1.2385 0.4942
v  0.5489 1.4642 0.2556
v  0.4313 1.6298 -0.0102
v  0.2342 1.6662 -0.2811
v  -0.0000 1.7224 -0.2040
v  -0.0012 1.7351 0.1344
v  -0.0023 1.6159 0.4513
v  -0.0031 1.3867 0.6978
# 33 vertices

vn -0.2225 0.3406 -0.9135
vn -0.0776 0.6787 -0.7303
vn -0.3220 -0.0327 -0.9462
vn -0.2183 0.3433 -0.9135
vn -0.3734 -0.3842 -0.8444
vn -0.3246 -0.0354 -0.9452
vn 0.3792 -0.3837 -0.8420
vn -0.3731 -0.3837 -0.8447
vn 0.3290 -0.0355 -0.9437
vn 0.3789 -0.3844 -0.8418
vn 0.2279 0.3430 -0.9113
vn 0.3303 -0.0316 -0.9434
vn 0.0827 0.6787 -0.7297
vn 0.2260 0.3389 -0.9133
vn -0.5373 0.5269 -0.6586
vn -0.1933 0.7461 -0.6371
vn -0.7853 0.2343 -0.5730
vn -0.5412 0.5263 -0.6559
vn -0.9071 -0.0725 -0.4147
vn -0.7829 0.2359 -0.5757
vn 0.9100 -0.0731 -0.4081
vn -0.9073 -0.0729 -0.4141
vn 0.7878 0.2367 -0.5686
vn 0.9100 -0.0723 -0.4082
vn 0.5437 0.5252 -0.6547
vn 0.7887 0.2327 -0.5691
vn 0.1977 0.7461 -0.6358
vn 0.5422 0.5294 -0.6526
vn -0.5404 0.7890 -0.2923
vn -0.1937 0.8399 -0.5070
vn -0.7983 0.6020 0.0165
vn -0.5389 0.7883 -0.2968
vn -0.8970 0.4132 0.1569
vn -0.7866 0.6160 -0.0425
vn 0.9078 0.3674 0.2022
vn -0.8963 0.3835 0.2229
vn 0.7774 0.6290 -0.0085
vn 0.8815 0.4339 0.1863
vn 0.5405 0.7897 -0.2901
vn 0.8138 0.5811 0.0020
vn 0.1972 0.8399 -0.5056
vn 0.5444 0.7870 -0.2903
vn -0.2247 0.9737 -0.0374
vn -0.0788 0.9073 -0.4131
vn -0.3598 0.8737 0.3273
vn -0.2228 0.9743 -0.0329
vn -0.3404 0.8586 0.3833
vn -0.4043 0.7144 0.5711
vn -0.3785 0.6785 0.6296
vn 0.4054 0.6687 0.6233
vn 0.3693 0.7202 0.5873
vn 0.3267 0.8843 0.3337
vn 0.3663 0.8538 0.3700
vn 0.2217 0.9745 -0.0359
vn 0.2257 0.9736 -0.0334
vn 0.0817 0.9073 -0.4125
# 56 vertex normals

vt 0.4117 0.9692 0.0000
vt 0.5094 1.0288 0.0000
vt 0.2696 0.9609 0.0000
vt 0.5693 0.9115 0.0000
vt 0.5411 1.0058 0.0000
vt 0.4778 0.9711 0.0000
vt 0.1664 0.8797 0.0000
vt 0.4528 0.8478 0.0000
vt 0.1147 0.7486 0.0000
vt 0.8287 0.7486 0.0000
vt 0.8242 0.8797 0.0000
vt 0.7751 0.9609 0.0000
vt 0.6845 0.9692 0.0000
vt 0.3725 0.8804 0.0000
vt 0.1968 0.7963 0.0000
vt 0.0665 0.6625 0.0000
vt 0.0470 0.5532 0.0000
vt 1.0236 0.5908 0.0000
vt 1.0034 0.6666 0.0000
vt 0.9159 0.7854 0.0000
vt 0.7576 0.8804 0.0000
vt 0.4457 0.7916 0.0000
vt 0.3236 0.6256 0.0000
vt 0.2442 0.4514 0.0000
vt 0.2762 0.3562 0.0000
vt 0.9552 0.4136 0.0000
vt 0.9066 0.4488 0.0000
vt 0.8381 0.6204 0.0000
vt 0.7184 0.7916 0.0000
vt 0.5890 0.7550 0.0000
vt 0.5862 0.5582 0.0000
vt 0.5950 0.3631 0.0000
vt 0.6605 0.2816 0.0000
# 33 texture coords

g Nemu_6B19E23B_0_023
usemtl Material__1109
s 1
f 31/18/14 32/19/14 33/20/14 
f 31/18/15 34/21/15 35/22/15 
f 33/20/16 36/23/16 37/24/16 
f 35/22/17 32/19/17 31/18/17 
f 37/24/18 38/25/18 39/26/18 
f 32/19/19 36/23/19 33/20/19 
f 36/23/20 40/27/20 38/25/20 
f 36/23/21 38/25/21 37/24/21 
f 32/19/22 41/28/22 36/23/22 
f 41/28/23 40/27/23 36/23/23 
f 35/22/24 42/29/24 32/19/24 
f 42/29/25 41/28/25 32/19/25 
f 35/22/26 34/21/26 43/30/26 
f 43/30/27 42/29/27 35/22/27 
f 44/31/28 33/20/28 45/32/28 
f 44/31/29 34/21/29 31/18/29 
f 45/32/30 37/24/30 46/33/30 
f 31/18/31 33/20/31 44/31/31 
f 46/33/32 39/26/32 47/34/32 
f 33/20/33 37/24/33 45/32/33 
f 41/28/34 48/35/34 40/27/34 
f 37/24/35 39/26/35 46/33/35 
f 42/29/36 49/36/36 41/28/36 
f 49/36/37 48/35/37 41/28/37 
f 43/30/38 50/37/38 42/29/38 
f 50/37/39 49/36/39 42/29/39 
f 43/30/40 34/21/40 51/38/40 
f 51/38/41 50/37/41 43/30/41 
f 52/39/42 45/32/42 53/40/42 
f 52/39/43 34/21/43 44/31/43 
f 53/40/44 46/33/44 54/41/44 
f 44/31/45 45/32/45 52/39/45 
f 54/41/46 47/34/46 55/42/46 
f 45/32/47 46/33/47 53/40/47 
f 49/36/48 56/43/48 48/35/48 
f 46/33/49 47/34/49 54/41/49 
f 50/37/50 57/44/50 49/36/50 
f 57/44/51 56/43/51 49/36/51 
f 51/38/52 58/45/52 50/37/52 
f 58/45/53 57/44/53 50/37/53 
f 51/38/54 34/21/54 59/46/54 
f 59/46/55 58/45/55 51/38/55 
f 60/47/56 53/40/56 61/48/56 
f 60/47/57 34/21/57 52/39/57 
f 61/48/58 54/41/58 62/49/58 
f 52/39/59 53/40/59 60/47/59 
f 53/40/60 54/41/60 61/48/60 
f 54/41/61 55/42/61 62/49/61 
f 62/49/62 55/42/62 63/50/62 
f 62/49/63 63/50/63 57/44/63 
f 57/44/64 63/50/64 56/43/64 
f 61/48/65 62/49/65 58/45/65 
f 58/45/66 62/49/66 57/44/66 
f 60/47/67 61/48/67 59/46/67 
f 59/46/68 61/48/68 58/45/68 
f 59/46/69 34/21/69 60/47/69 
# 0 polygons - 56 triangles

#
# object Nemu_108312FB_0_024
#

v  -0.6783 0.6030 0.3104
v  -0.6037 0.4892 0.4462
v  -0.6248 0.6910 0.4647
v  -0.7364 0.6994 0.1953
v  -0.7053 0.7474 0.3179
v  -0.3925 0.4323 0.5148
v  -0.0029 0.3311 0.6367
v  -0.2102 0.6873 0.7156
v  -0.4978 0.6733 0.6030
v  0.3875 0.4323 0.5174
v  0.5992 0.4892 0.4504
v  0.4922 0.6733 0.6064
v  0.2038 0.6873 0.7170
v  0.6747 0.6030 0.3150
v  0.7336 0.6994 0.2003
v  0.7017 0.7474 0.3227
v  0.6202 0.6910 0.4690
# 17 vertices

vn -0.9113 -0.1308 0.3904
vn -0.9313 -0.1904 0.3106
vn -0.3668 -0.3993 0.8402
vn -0.3837 -0.4606 0.8004
vn 0.3781 -0.4606 0.8030
vn 0.3611 -0.3994 0.8427
vn 0.9291 -0.1904 0.3170
vn 0.9086 -0.1308 0.3966
# 8 vertex normals

vt 0.0868 0.4442 0.0000
vt 0.0673 0.4142 0.0000
vt 0.4046 0.3087 0.0000
vt 0.3893 0.2780 0.0000
vt 0.7744 0.2780 0.0000
vt 0.7701 0.3118 0.0000
vt 1.0140 0.4142 0.0000
vt 1.0094 0.4442 0.0000
# 8 texture coords

g Nemu_108312FB_0_024
usemtl Material__1111
s 1
f 64/51/70 65/51/70 66/51/70 
f 67/52/71 64/52/71 68/52/71 
f 69/53/72 70/53/72 71/53/72 
f 65/54/73 69/54/73 72/54/73 
f 73/55/74 74/55/74 75/55/74 
f 70/56/75 73/56/75 76/56/75 
f 77/57/76 78/57/76 79/57/76 
f 74/58/77 77/58/77 80/58/77 
# 0 polygons - 8 triangles

#
# object Nemu_5EAD8A9F_0_023
#

v  0.8723 0.8808 -0.0014
v  -0.8722 0.8808 -0.0074
v  0.6142 0.4845 0.4700
v  -0.0030 0.3197 0.6644
v  -0.6173 0.4845 0.4658
# 5 vertices

vn -0.0022 0.7661 0.6427
# 1 vertex normals

vt -0.2051 0.1348 0.0000
vt 1.1270 0.1348 0.0000
vt -0.0117 0.8027 0.0000
vt 0.4590 1.0781 0.0000
vt 0.9316 0.8027 0.0000
# 5 texture coords

g Nemu_5EAD8A9F_0_023
usemtl Material__1106
s 1
f 81/59/78 82/60/78 83/61/78 
f 83/61/78 82/60/78 84/62/78 
f 84/62/78 82/60/78 85/63/78 
# 0 polygons - 3 triangles

#
# object Nemu_6B19E23B_0_022
#

v  -0.4302 0.6895 -0.7302
v  0.0019 0.4803 -0.7710
v  -0.2323 0.4186 -0.6983
v  0.0012 0.2176 -0.5606
v  -0.5640 0.9914 -0.6517
v  0.0023 0.8052 -0.8666
v  -0.6111 1.2741 -0.4754
v  0.0021 1.1417 -0.8290
v  0.0016 1.4370 -0.6675
v  0.5670 0.9914 -0.6478
v  0.4338 0.6895 -0.7272
v  0.6129 1.2741 -0.4712
v  0.2357 0.4186 -0.6967
v  -0.6113 0.4119 -0.3998
v  -0.3289 0.2682 -0.5194
v  -0.7994 0.6279 -0.2192
v  -0.8662 0.8808 -0.0074
v  0.7995 0.6279 -0.2138
v  0.6126 0.4119 -0.3956
v  0.8648 0.8808 -0.0014
v  0.3311 0.2682 -0.5171
v  -0.4325 0.1342 -0.0683
v  -0.2335 0.1178 -0.3397
v  -0.5669 0.2645 0.2148
v  -0.6143 0.4874 0.4623
v  0.5640 0.2645 0.2187
v  0.4315 0.1342 -0.0653
v  0.6097 0.4874 0.4665
v  0.2344 0.1178 -0.3382
v  -0.0009 0.0185 0.0712
v  0.0002 0.0561 -0.2654
v  -0.0021 0.1141 0.3960
v  -0.0030 0.3245 0.6586
# 33 vertices

vn -0.2197 -0.2708 -0.9372
vn -0.0775 -0.6232 -0.7782
vn -0.3238 0.1012 -0.9407
vn -0.2216 -0.2750 -0.9356
vn -0.3732 0.4452 -0.8139
vn -0.3226 0.1049 -0.9407
vn 0.3788 0.4446 -0.8117
vn -0.3735 0.4446 -0.8141
vn 0.3310 0.1049 -0.9378
vn 0.3792 0.4452 -0.8112
vn 0.2247 -0.2752 -0.9348
vn 0.3284 0.1021 -0.9390
vn 0.0829 -0.6232 -0.7777
vn 0.2288 -0.2726 -0.9345
vn -0.5376 -0.4797 -0.6935
vn -0.1931 -0.6973 -0.6903
vn -0.7847 -0.1901 -0.5900
vn -0.5390 -0.4755 -0.6952
vn -0.9072 0.1024 -0.4080
vn -0.7839 -0.1940 -0.5899
vn 0.9101 0.1030 -0.4013
vn -0.9072 0.1031 -0.4078
vn 0.7869 -0.1931 -0.5861
vn 0.9099 0.1026 -0.4020
vn 0.5458 -0.4768 -0.6891
vn 0.7893 -0.1917 -0.5833
vn 0.1979 -0.6973 -0.6890
vn 0.5419 -0.4772 -0.6918
vn -0.5422 -0.7633 -0.3512
vn -0.1935 -0.8004 -0.5674
vn -0.7846 -0.6134 -0.0904
vn -0.5383 -0.7661 -0.3511
vn -0.9093 -0.3803 0.1686
vn -0.7870 -0.6104 -0.0895
vn 0.9080 -0.3808 0.1744
vn -0.9091 -0.3810 0.1684
vn 0.7870 -0.6114 -0.0823
vn 0.9080 -0.3806 0.1751
vn 0.5412 -0.7645 -0.3503
vn 0.7862 -0.6119 -0.0862
vn 0.1974 -0.8004 -0.5661
vn 0.5426 -0.7655 -0.3459
vn -0.2212 -0.9691 -0.1090
vn -0.0786 -0.8745 -0.4787
vn -0.3287 -0.9063 0.2655
vn -0.2252 -0.9685 -0.1065
vn -0.3261 -0.9080 0.2630
vn -0.3784 -0.7226 0.5785
vn -0.3780 -0.7231 0.5781
vn 0.3743 -0.7230 0.5806
vn 0.3741 -0.7227 0.5812
vn 0.3249 -0.9070 0.2679
vn 0.3261 -0.9077 0.2642
vn 0.2252 -0.9684 -0.1074
vn 0.2233 -0.9693 -0.1030
vn 0.0818 -0.8745 -0.4781
# 56 vertex normals

vt 0.1943 0.4004 0.0000
vt 0.4432 0.2772 0.0000
vt 0.3138 0.2406 0.0000
vt 0.4630 0.1207 0.0000
vt 0.1262 0.5808 0.0000
vt 0.4340 0.4683 0.0000
vt 0.1147 0.7486 0.0000
vt 0.4377 0.6722 0.0000
vt 0.4528 0.8478 0.0000
vt 0.7841 0.5808 0.0000
vt 0.6997 0.4004 0.0000
vt 0.8287 0.7486 0.0000
vt 0.5866 0.2406 0.0000
vt 0.1214 0.2359 0.0000
vt 0.2746 0.1518 0.0000
vt 0.0267 0.3667 0.0000
vt 0.0087 0.4414 0.0000
vt 0.9654 0.3667 0.0000
vt 0.8355 0.2359 0.0000
vt 1.0035 0.4414 0.0000
vt 0.6597 0.1518 0.0000
vt 0.2572 0.0714 0.0000
vt 0.3477 0.0630 0.0000
vt 0.2080 0.1525 0.0000
vt 0.1970 0.2116 0.0000
vt 0.8659 0.1525 0.0000
vt 0.7626 0.0714 0.0000
vt 0.9030 0.2116 0.0000
vt 0.6205 0.0630 0.0000
vt 0.5229 0.0035 0.0000
vt 0.4911 0.0265 0.0000
vt 0.5544 0.0611 0.0000
vt 0.5679 0.1175 0.0000
# 33 texture coords

g Nemu_6B19E23B_0_022
usemtl Material__1108
s 1
f 86/64/79 87/65/79 88/66/79 
f 89/67/80 88/66/80 87/65/80 
f 90/68/81 91/69/81 86/64/81 
f 91/69/82 87/65/82 86/64/82 
f 92/70/83 93/71/83 90/68/83 
f 93/71/84 91/69/84 90/68/84 
f 94/72/85 95/73/85 93/71/85 
f 94/72/86 93/71/86 92/70/86 
f 93/71/87 96/74/87 91/69/87 
f 97/75/88 95/73/88 94/72/88 
f 91/69/89 98/76/89 87/65/89 
f 95/73/90 96/74/90 93/71/90 
f 89/67/91 87/65/91 98/76/91 
f 96/74/92 98/76/92 91/69/92 
f 99/77/93 88/66/93 100/78/93 
f 89/67/94 100/78/94 88/66/94 
f 101/79/95 86/64/95 99/77/95 
f 86/64/96 88/66/96 99/77/96 
f 102/80/97 90/68/97 101/79/97 
f 90/68/98 86/64/98 101/79/98 
f 97/75/99 103/81/99 95/73/99 
f 92/70/100 90/68/100 102/80/100 
f 95/73/101 104/82/101 96/74/101 
f 105/83/102 103/81/102 97/75/102 
f 96/74/103 106/84/103 98/76/103 
f 103/81/104 104/82/104 95/73/104 
f 89/67/105 98/76/105 106/84/105 
f 104/82/106 106/84/106 96/74/106 
f 107/85/107 100/78/107 108/86/107 
f 89/67/108 108/86/108 100/78/108 
f 109/87/109 99/77/109 107/85/109 
f 99/77/110 100/78/110 107/85/110 
f 110/88/111 101/79/111 109/87/111 
f 101/79/112 99/77/112 109/87/112 
f 105/83/113 111/89/113 103/81/113 
f 102/80/114 101/79/114 110/88/114 
f 103/81/115 112/90/115 104/82/115 
f 113/91/116 111/89/116 105/83/116 
f 104/82/117 114/92/117 106/84/117 
f 111/89/118 112/90/118 103/81/118 
f 89/67/119 106/84/119 114/92/119 
f 112/90/120 114/92/120 104/82/120 
f 115/93/121 108/86/121 116/94/121 
f 89/67/122 116/94/122 108/86/122 
f 117/95/123 107/85/123 115/93/123 
f 107/85/124 108/86/124 115/93/124 
f 109/87/125 107/85/125 117/95/125 
f 110/88/126 109/87/126 118/96/126 
f 118/96/127 109/87/127 117/95/127 
f 118/96/128 117/95/128 113/91/128 
f 113/91/129 117/95/129 111/89/129 
f 117/95/130 115/93/130 111/89/130 
f 111/89/131 115/93/131 112/90/131 
f 115/93/132 116/94/132 112/90/132 
f 112/90/133 116/94/133 114/92/133 
f 89/67/134 114/92/134 116/94/134 
# 0 polygons - 56 triangles

